<?xml version="1.0" encoding="utf-8"?>
<!-- Generator: Adobe Illustrator 15.0.0, SVG Export Plug-In . SVG Version: 6.00 Build 0)  -->
<!DOCTYPE svg PUBLIC "-//W3C//DTD SVG 1.1//EN" "http://www.w3.org/Graphics/SVG/1.1/DTD/svg11.dtd">
<svg version="1.1" id="Layer_1" xmlns="http://www.w3.org/2000/svg" xmlns:xlink="http://www.w3.org/1999/xlink" x="0px" y="0px"
	 width="500px" height="500px" viewBox="0 0 500 500" enable-background="new 0 0 500 500" xml:space="preserve">
<path fill-rule="evenodd" clip-rule="evenodd" fill="#B76623" d="M257.307,80.715c0.624-0.135,0.691,0.286,0.733,0.734
	c-3.088,11.101-5.411,22.967-8.44,34.126c-2.831-2.995-5.081-6.994-3.669-13.21c-2.538,0.157-6.158,2.402-9.541,2.936
	C237.948,91.691,248.744,87.32,257.307,80.715z"/>
<path fill-rule="evenodd" clip-rule="evenodd" fill="#B76623" d="M131.441,89.889c8.855,3.989,18.675,10.192,19.449,23.485
	c-2.621-1.048-5.335-2.004-7.706-3.303c-0.909,4.107-0.868,9.163-3.669,11.375C136.997,110.754,135.931,98.609,131.441,89.889z"/>
<path fill-rule="evenodd" clip-rule="evenodd" fill="#CF9768" d="M315.285,120.712c-0.607-0.396-0.607-3.274,0-3.669
	C315.285,118.267,315.285,119.489,315.285,120.712z"/>
<path fill-rule="evenodd" clip-rule="evenodd" fill="#026C33" d="M161.898,132.822c15.268-2.758,14.575,24.585,0,21.283
	C152.827,152.049,151.721,134.66,161.898,132.822z M167.036,141.629c3.154,0.023,4.461-3.633,2.202-5.871
	C164.937,131.496,160.707,141.583,167.036,141.629z"/>
<path fill-rule="evenodd" clip-rule="evenodd" fill="#CF9768" d="M285.562,144.564c1.234-0.61,5.004-0.61,6.238,0
	C289.72,144.564,287.642,144.564,285.562,144.564z"/>
<path fill-rule="evenodd" clip-rule="evenodd" fill="#CF9768" d="M266.113,150.069c0.607,0.396,0.607,3.273,0,3.669
	C266.113,152.515,266.113,151.292,266.113,150.069z"/>
<path fill-rule="evenodd" clip-rule="evenodd" fill="#CF9768" d="M101.718,150.803c0.628-0.84,2.801-0.134,4.037-0.367
	C105.126,151.275,102.954,150.57,101.718,150.803z"/>
<path fill-rule="evenodd" clip-rule="evenodd" fill="#CF9768" d="M107.589,150.436c1.235,0.232,3.408-0.473,4.036,0.367
	C110.391,150.57,108.217,151.275,107.589,150.436z"/>
<path fill-rule="evenodd" clip-rule="evenodd" fill="#B76623" d="M201.529,155.206c1.719,4.131-2.284,9.296-5.871,9.541
	c-3.997,0.272-8.267-4.189-8.44-8.807C190.981,154.052,196.929,155.728,201.529,155.206z"/>
<path fill-rule="evenodd" clip-rule="evenodd" fill="#CF9768" d="M269.782,157.041c1.478-0.61,5.494-0.61,6.973,0
	C274.43,157.041,272.106,157.041,269.782,157.041z"/>
<path fill-rule="evenodd" clip-rule="evenodd" fill="#E9CCB1" d="M117.497,160.344c2.085-0.611,6.721-0.611,8.807,0
	C123.368,160.344,120.433,160.344,117.497,160.344z"/>
<path fill-rule="evenodd" clip-rule="evenodd" fill="#B76623" d="M196.025,170.618c1.351,4.216,5.147,8.887,10.642,8.073
	c4.543-0.673,4.063-4.82,6.972-7.706c3.958,3.109-1.786,9.854-5.871,10.642c-5.288,1.018-9.703-1.542-12.109-4.771
	c-3.577,8.563-21.227,6.182-18.715-5.137c4.386,0.736,2.697,5.555,6.238,6.972c6.135,2.455,10.411-2.386,11.375-8.073
	C195.046,170.618,195.536,170.618,196.025,170.618z"/>
<path fill-rule="evenodd" clip-rule="evenodd" fill="#CF9768" d="M152.725,248.779c-0.611-2.451-0.611-7.456,0-9.908
	C152.725,242.174,152.725,245.477,152.725,248.779z"/>
<path fill-rule="evenodd" clip-rule="evenodd" fill="#CF9768" d="M411.06,277.035c0,1.223,0,2.446,0,3.669c-0.122,0-0.245,0-0.367,0
	C410.924,279.589,410.224,277.543,411.06,277.035z"/>
<path fill-rule="evenodd" clip-rule="evenodd" fill="#F49E2C" d="M188.319,383.451c-1.647,0.311-3.129,0.785-5.137,0.734
	c-1.468,0-2.936,0-4.403,0c-7.25-0.457-12.684-2.729-17.247-5.871c7.619-25.469,6.266-63.988,2.569-92.84
	c9.677,14.421,19.993,28.199,33.393,38.897C190.942,340.572,191.608,363.989,188.319,383.451z"/>
<path fill-rule="evenodd" clip-rule="evenodd" fill="#CF9768" d="M162.999,322.17c0.851,1.84,0.126,5.256,0.367,7.706
	C162.515,328.036,163.24,324.62,162.999,322.17z"/>
<path fill-rule="evenodd" clip-rule="evenodd" fill="#CF9768" d="M162.999,339.05c0.24-2.328-0.484-5.62,0.367-7.339
	C163.126,334.039,163.85,337.332,162.999,339.05z"/>
<path fill-rule="evenodd" clip-rule="evenodd" fill="#E9CCB1" d="M178.778,384.186c1.468,0,2.936,0,4.403,0
	C182.549,384.793,179.411,384.793,178.778,384.186z"/>
<path fill-rule="evenodd" clip-rule="evenodd" fill="#E9CCB1" d="M237.491,391.157c1.345,0,2.691,0,4.037,0
	C241.013,391.765,238.004,391.765,237.491,391.157z"/>
<path fill-rule="evenodd" clip-rule="evenodd" fill="#E9CCB1" d="M289.598,392.625c0.515-0.608,3.523-0.608,4.037,0
	C292.289,392.625,290.944,392.625,289.598,392.625z"/>
<path fill-rule="evenodd" clip-rule="evenodd" fill="#E9CCB1" d="M331.063,78.146c1.192-1.499,2.538-2.844,4.037-4.037
	C333.907,75.608,332.563,76.954,331.063,78.146z"/>
<path fill-rule="evenodd" clip-rule="evenodd" fill="#CF9768" d="M337.669,249.88c1.989,1.682,3.822,3.515,5.505,5.504
	C341.186,253.703,339.351,251.868,337.669,249.88z"/>
<path fill-rule="evenodd" clip-rule="evenodd" fill="#E9CCB1" d="M223.18,340.518c1.38,1.804,0.795,7.517,0.367,9.908
	C223.329,347.219,223.999,343.123,223.18,340.518z"/>
<path fill-rule="evenodd" clip-rule="evenodd" fill="#E9CCB1" d="M190.154,313.363c1.621,1.313,3.089,2.781,4.403,4.403
	C192.936,316.452,191.468,314.984,190.154,313.363z"/>
<path fill-rule="evenodd" clip-rule="evenodd" fill="#F49E2C" d="M215.106,289.145c3.104,9.617,5.445,19.998,6.972,31.19
	C219.668,310.024,217.204,299.769,215.106,289.145z"/>
<path fill-rule="evenodd" clip-rule="evenodd" fill="#F49E2C" d="M156.394,239.239c0.521-12.689,3.008-23.413,5.871-33.76
	c-1.445-2.36-4.241-2.308-6.238-3.669c-9.891-6.745-15.947-18.122-20.916-29.724c0.673-1.896,5.793,0.655,5.871-1.834
	c-0.346-3.004-4.117-1.263-6.605-1.468c-0.15-1.563-0.17-3.256-0.734-4.404c2.125-1.463,5.961,1.875,7.706-0.367
	c-0.225-3.322-4.727-2.367-7.706-2.936c-0.53-1.183-0.347-3.078-0.367-4.771c2.858,0.323,7.33,3.225,9.174,1.101
	c0.29-3.267-6.367-2.654-9.174-4.036c-0.021-14.16,3.021-27.012,1.101-39.631c-1.842-12.109-5.565-23.062-9.174-33.393
	c13.371,6.567,26.501,13.374,39.631,20.183c7.31-4.412,16.847-8.731,28.255-9.174c11.063-0.43,21.753,2.261,29.723,6.605
	c13.636-8.504,26.061-18.218,39.631-26.788c-0.781,6.769-2.862,13.39-4.403,20.183c-1.55,6.833-4.224,14.387-4.036,21.283
	c0.326,11.994,9.591,21.42,8.439,34.494c-3.436,1.334-8.869,0.671-10.642,3.669c2.001,3.187,7.13-0.806,10.642-0.734
	c0,1.468,0,2.936,0,4.403c-2.792,1.245-8.236-0.165-9.174,2.936c1.141,3.184,5.423-0.474,8.807,0.367
	c-0.148,1.564,0.355,3.78-0.366,4.771c-2.543,0.394-6.716-0.845-8.073,0.734c-0.46,3.763,4.956,1.65,7.706,2.202
	c-0.505,4.851-1.628,9.187-3.303,14.311c-1.295,3.96-4.53,9.139-3.669,13.577c0.776,4.009,10.432,9.4,15.045,12.11
	c16.88,9.913,33.548,22.014,48.438,33.026c15.102,11.168,28.699,25.323,40.365,41.099c3.915,5.295,8.886,10.944,11.009,16.146
	c0.764,1.872-0.158,3.577,2.201,5.505c6.204-3.531,9.578-12.245,10.274-21.283c1.611-20.916-4.977-37.832-11.742-52.107
	c-5.363-11.316-13.515-20.679-20.55-31.558c-6.603-10.211-12.974-21.641-18.348-33.76c-5.465-12.328-11.256-26.254-12.109-39.998
	c-1.35-21.729,7.343-34.03,18.715-45.135c3.672,1.588,6.343,4.176,9.541,6.238c1.314,1.621,2.782,3.089,4.403,4.403
	c2.48,3.636,5.283,6.948,5.504,12.843c1.23-0.001,3.464-2.156,5.138-2.936c-8.875,7.394-15.779,16.012-15.779,29.723
	c0,14.672,6.54,27.413,12.844,38.163c6.443,10.988,14.91,20.208,21.283,29.724c6.684,9.979,12.593,21.656,17.247,33.76
	c4.606,11.979,9.515,26.858,9.541,41.466c0.062,33.926-5.83,66.845-25.32,83.298c-1.777,16.802-7.472,30.577-20.916,35.595
	c-2.18,0.813-4.832,0.622-6.973,2.202c0.004,2.933,1.389,4.482,1.835,6.972c-1.25-1.807-2.061-4.056-2.568-6.605
	c-10.156,5.243-26.545,11.526-42.934,6.605c-6.084-1.828-9.701-5.605-16.88-6.238c-0.514-0.608-3.522-0.608-4.037,0
	c-1.383-0.282-1.753,0.447-2.936,0.367c0.692-0.652,1.624-1.066,1.468-2.568c-0.675-1.649-3.192-1.456-4.77-2.202
	c-10.326-10.232-16.271-25.385-15.046-43.667c1.191-17.772,10.76-34.218,23.485-41.1c5.448-2.946,10.898-4.406,16.88-6.972
	c1.259-0.541,4.465-1.024,4.036-3.67c-4.062-1.205-7.938,1.829-11.375,3.303c-3.746,1.606-7.634,2.91-11.009,4.771
	c-22.695,12.507-33.706,50.814-17.613,78.896c1.323,2.31,2.888,3.93,4.403,6.604c-4.2-1.061-7.361-3.158-12.109-3.669
	c-1.288-1.771-3.722-2.395-4.771-4.403c2.7-27.383,6.137-57.336,16.88-77.061c1.283-2.356,4.329-5.416,2.568-8.44
	c-4.05-0.096-5.141,5.024-6.605,7.706c-8.454,15.478-12.35,38.212-15.045,60.181c-1.149,9.372-1.2,18.882-4.403,26.421
	c-3.246,2.137-7.019,3.745-12.109,4.036c-1.345,0-2.691,0-4.037,0c-6.528-0.2-10.79-2.664-16.146-4.036
	c12.09-35.674,4.667-86.861-8.44-116.691c-1.361-0.708-2.799-0.067-3.303,1.101c-6.138-10.994-13.017-35.428-21.283-45.869
	c-3.017-3.811-9.104-10.516-13.944-11.375C163.122,212.289,158.805,227.151,156.394,239.239z M236.39,105.301
	c3.383-0.534,7.003-2.779,9.541-2.936c-1.411,6.217,0.838,10.215,3.669,13.21c3.029-11.16,5.352-23.026,8.44-34.126
	c-0.042-0.448-0.109-0.869-0.733-0.734C248.744,87.32,237.948,91.691,236.39,105.301z M139.514,121.446
	c2.802-2.213,2.761-7.269,3.669-11.375c2.371,1.299,5.085,2.254,7.706,3.303c-0.774-13.292-10.594-19.496-19.449-23.485
	C135.931,98.609,136.997,110.754,139.514,121.446z M161.898,154.105c14.575,3.302,15.268-24.041,0-21.283
	C151.721,134.66,152.827,152.049,161.898,154.105z M224.28,154.472c13.349,1.392,13.505-22.643,0-21.65
	C212.885,133.66,213.365,153.333,224.28,154.472z M187.218,155.94c0.173,4.618,4.443,9.08,8.44,8.807
	c3.587-0.245,7.59-5.41,5.871-9.541C196.929,155.728,190.981,154.052,187.218,155.94z M194.557,170.618
	c-0.964,5.688-5.241,10.528-11.375,8.073c-3.542-1.417-1.852-6.236-6.238-6.972c-2.512,11.319,15.138,13.7,18.715,5.137
	c2.406,3.229,6.822,5.788,12.109,4.771c4.085-0.787,9.829-7.533,5.871-10.642c-2.909,2.886-2.429,7.033-6.972,7.706
	c-5.495,0.814-9.291-3.857-10.642-8.073C195.536,170.618,195.046,170.618,194.557,170.618z"/>
<path fill-rule="evenodd" clip-rule="evenodd" fill="#F49E2C" d="M375.099,69.339c3.896,1.807,7.243,8.087,4.403,13.21
	C380.722,76.726,378.194,72.013,375.099,69.339z"/>
<path fill-rule="evenodd" clip-rule="evenodd" fill="#E9CCB1" d="M347.21,83.65c1.622,1.314,3.089,2.782,4.403,4.403
	C349.992,86.739,348.524,85.271,347.21,83.65z"/>
<path fill-rule="evenodd" clip-rule="evenodd" fill="#FFFFFF" d="M156.394,239.239c2.411-12.087,6.728-26.95,17.98-24.953
	c4.841,0.859,10.927,7.565,13.944,11.375c8.266,10.441,15.146,34.875,21.283,45.869c1.766,5.941,3.889,11.523,5.504,17.614
	c2.097,10.624,4.562,20.88,6.972,31.19c0.632,5.239,1.46,10.283,1.468,16.146c-2.583,0.214-5.203-1.996-7.706-3.303
	c-7.702-4.02-15.407-9.534-21.283-15.412c-1.314-1.622-2.782-3.09-4.403-4.403c-15.679-16.492-31.222-33.118-33.76-62.749
	c0-3.058,0-6.116,0-9.174C156.394,240.707,156.394,239.973,156.394,239.239z"/>
<path fill-rule="evenodd" clip-rule="evenodd" fill="#026C33" d="M224.28,132.822c13.505-0.993,13.349,23.042,0,21.65
	C213.365,153.333,212.885,133.66,224.28,132.822z M228.317,141.262c3.829-0.409,4.189-8.939-1.835-6.605
	C221.966,136.407,225.579,141.554,228.317,141.262z"/>
<path fill-rule="evenodd" clip-rule="evenodd" fill="#FFFFFF" d="M169.237,135.758c2.259,2.238,0.953,5.894-2.202,5.871
	C160.707,141.583,164.937,131.496,169.237,135.758z"/>
<path fill-rule="evenodd" clip-rule="evenodd" fill="#FFFFFF" d="M188.319,383.451c-1.53,12.96-5.562,33.415-14.311,41.099
	c-3.249,2.854-7.412,4.01-13.577,2.936c-0.234-5.371,4.262-6.012,4.77-10.642c-4.216,0.015-6.208,5.237-7.339,9.541
	c-2.375-0.192-4.083-1.055-5.504-2.201c-0.012-5.272,4.426-6.094,5.504-10.275c-4.679-0.494-6.573,4.904-8.073,8.808
	c-5.438-3.187,0.138-7.621,2.202-11.743c2.086-4.168,3.03-10.697,4.77-16.513c1.75-5.851,3.608-11.658,4.771-16.146
	c4.563,3.142,9.997,5.414,17.247,5.871c0.632,0.607,3.771,0.607,4.403,0C185.19,384.236,186.672,383.762,188.319,383.451z"/>
<path fill-rule="evenodd" clip-rule="evenodd" fill="#FFFFFF" d="M215.474,379.048c1.922-0.77,2.778-2.604,4.771-3.303
	c-1.574,6.744-3.419,13.216-5.504,19.449c-1.73-0.594-2.549-2.1-3.669-3.303c0.214-4.339,6.114-4.858,6.238-8.073
	c-3.393-1.618-6.133,3.274-8.44,5.138c-0.099-2.423,1.286-3.362,1.835-5.138C212.446,382.382,214.037,380.792,215.474,379.048z"/>
<path fill-rule="evenodd" clip-rule="evenodd" fill="#F49E2C" d="M210.703,383.818c1.437-1.744,3.027-3.334,4.771-4.771
	C214.037,380.792,212.446,382.382,210.703,383.818z"/>
<path fill-rule="evenodd" clip-rule="evenodd" fill="#FFFFFF" d="M265.013,382.718c-2.59,0.345-4.015,1.856-6.605,2.201
	c0.712-2.1,1.096-4.53,1.835-6.604C261.291,380.323,263.725,380.947,265.013,382.718z"/>
<path fill-rule="evenodd" clip-rule="evenodd" fill="#B76623" d="M358.952,62c2.202,0,4.403,0,6.605,0
	c8.148,1.245,17.461,5.664,18.715,13.577c2.789,17.597-16.584,20.84-25.688,30.824c-2.047,2.247-4.363,5.555-5.504,8.073
	c-8.215,18.13,3.351,38.88,11.009,51.373c6.269,10.226,13.735,19.294,20.183,28.99c13.264,19.946,23.341,44.77,26.787,71.922
	c0,3.425,0,6.851,0,10.275c-0.836,0.508-0.136,2.554-0.367,3.669c-1.196,32.318-7.3,59.729-24.952,75.593
	c-2.379,19.395-10.021,33.525-27.155,38.163c0.276,2.777,3.159,5.925,2.937,9.541c-0.285,4.607-5.614,8.754-10.275,11.375
	c-8.682,4.882-17.546,4.063-29.723,4.403c-6.639,0.187-13.584,2.075-19.449,3.303c-6.373,1.335-12.099,4.336-17.246,5.138
	c-8.938,1.392-18.83-1.417-22.018-5.504c-1.471-1.886-3.978-8.136-3.67-11.376c0.92-9.661,13.735-14.152,20.917-19.448
	c-4.302-2.304-9.823-3.388-14.312-5.505c-2.8,0.993-5.589,1.994-8.439,2.936c-8.317,20.307-12.922,44.323-37.43,48.438
	c-2.324,0-4.648,0-6.972,0c-6.969-1.272-13.995-6.51-13.577-12.477c0.12-1.708,2.284-4.104,3.669-6.238
	c3.831-5.898,8.243-14.633,10.275-19.815c-3.291-3.511-7.992-5.979-8.073-11.376c-0.128-8.533,10.359-13.352,16.146-16.88
	c0.713-6.87,2.079-13.089,2.202-20.549c0.429-2.392,1.014-8.104-0.367-9.908c-8.604-3.384-15.5-8.474-22.751-13.21
	c-8.46,28.512-5.146,73.707-20.549,96.142c-2.086,3.04-5.387,6.128-9.174,7.339c-10.098,3.229-25.306-2.509-26.42-10.274
	c-0.805-5.608,2.861-8.089,4.403-11.742c2.054-4.866,3.208-10.774,4.771-16.146c4.64-15.957,9.8-33.315,9.541-53.575
	c0.851-1.718,0.127-5.011,0.367-7.339c0-0.612,0-1.223,0-1.835c-0.241-2.45,0.484-5.866-0.367-7.706
	c0.104-8.329-0.79-15.717-1.468-23.118c-0.675-7.373-0.374-15.174-2.202-22.384c-1.015-4.005-3.649-7.873-4.771-12.477
	c-1.201-4.929-1.685-9.899-1.834-15.412c0-3.303,0-6.605,0-9.908c0.241-11.868,2.309-21.91,5.137-31.191
	c-12.619-8.42-21.518-20.561-27.155-35.961c-9.354,1.207-17.954,3.583-24.953,6.972c-2.247,1.088-4.814,3.543-7.339,2.202
	c0.293-3.123,3.979-3.7,6.238-4.771c7.446-3.528,16.109-6.443,26.054-6.972c-0.565-1.758-0.402-4.245-1.101-5.871
	c-0.856,0-1.712,0-2.569,0c-2.573-0.611-7.701-0.611-10.274,0c-6.177,0.363-11.478,0.975-16.513,2.202
	c-4.334,1.056-8.163,3.932-12.109,2.936c0-0.489,0-0.979,0-1.468c8.023-3.965,17.918-6.056,29.356-6.605c2.936,0,5.871,0,8.807,0
	c1.101,0,2.202,0,3.303,0c0.145-1.735-0.118-3.063-0.367-4.404c-8.418-2.083-21.782-3.467-31.925-2.202
	c-3.004,0.375-6.978,2.842-8.807,0c2.375-3.007,8.242-2.523,13.21-2.936c1.236-0.232,3.409,0.473,4.037-0.367
	c0.611,0,1.223,0,1.835,0c0.628,0.839,2.801,0.134,4.036,0.367c6.599-0.116,11.913,1.053,17.614,1.835
	c-0.12-9.35,1.733-17.591,2.202-26.054c0.825-14.895-4.61-29.505-8.44-40.365c-1.326-3.761-4.117-8.23-2.202-12.109
	c15.52,6.621,29.256,15.024,44.401,22.017c12.487-10.321,42.208-11.542,57.245-2.568c11.096-7.006,21.678-14.939,32.292-22.017
	c3.501-2.334,7.424-5.732,12.109-5.504c0.355,7.865-2.614,15.177-4.403,23.118c-1.575,6.995-5.21,17.457-4.403,24.953
	c1.146,10.636,9.289,19.821,8.073,32.292c6.241-0.854,12.2-1.988,19.448-1.835c2.08,0,4.158,0,6.238,0
	c5.323,0.602,13.764-0.707,15.412,3.669c-3.168,1.714-7.751-1.221-12.109-0.734c-3.428-0.611-9.416-0.611-12.844,0
	c-5.841,0.153-10.873,1.114-16.146,1.835c0,0.245,0,0.489,0,0.734c0,1.223,0,2.446,0,3.669c3.473,0.833,8.959,0.149,13.21,0.367
	c5.496,0.281,10.992,1.41,15.779,2.568c4.477,1.083,11.559,1.508,12.477,5.872c-4.695-0.373-9.326-2.162-14.312-3.303
	c-5.127-1.173-10.413-2.23-16.513-2.202c-1.479-0.61-5.495-0.61-6.973,0c-1.223,0-2.446,0-3.669,0
	c0.285,2.365-0.545,3.613-0.367,5.871c9.354,0.961,18.72,4.037,25.687,7.339c2.024,0.959,6.084,1.65,5.505,4.77
	c-5.008-0.411-9.178-3.806-14.312-5.504c-5.286-1.75-11.005-2.727-17.247-3.67c-1.432,9.699-4.7,17.562-7.339,26.054
	c5.245,6.347,12.906,10.154,19.815,14.312c21.522,12.95,41.537,27.836,59.813,43.667c1.682,1.988,3.517,3.823,5.505,5.504
	c11.318,11.799,21.052,25.184,30.09,39.264c9.852-18.443,2.202-46.03-5.138-62.382c-5.515-12.286-14.33-22.564-21.283-33.393
	c-13.676-21.297-28.591-46.146-31.558-78.161c0-1.223,0-2.446,0-3.669c0.386-17.839,7.214-29.236,15.778-38.897
	c1.499-1.192,2.844-2.538,4.037-4.037C341.475,68.498,348.657,63.692,358.952,62z M194.557,317.767
	c5.876,5.878,13.582,11.393,21.283,15.412c2.503,1.307,5.123,3.517,7.706,3.303c-0.007-5.863-0.835-10.907-1.468-16.146
	c-1.527-11.192-3.869-21.573-6.972-31.19c-1.616-6.091-3.739-11.673-5.504-17.614c0.504-1.168,1.942-1.809,3.303-1.101
	c13.107,29.83,20.53,81.018,8.44,116.691c-4.055,14.904-11.676,26.243-18.348,38.53c0.734,0.979,0.591,2.834,1.835,3.302
	c1.121-4.109,4.934-9.128,8.807-8.072c-1.331,4.418-7.237,4.26-6.238,11.009c1.62,1.193,3.602,2.024,6.238,2.201
	c-0.778-5.479,4.32-12.25,7.706-9.541c-1.956,3.06-6.018,4.012-5.137,9.908c26.206-2.05,29.878-26.633,37.429-47.337
	c3.203-7.539,3.254-17.049,4.403-26.421c2.695-21.969,6.591-44.703,15.045-60.181c1.465-2.682,2.556-7.802,6.605-7.706
	c1.761,3.024-1.285,6.084-2.568,8.44c-10.743,19.725-14.18,49.678-16.88,77.061c-0.739,2.074-1.123,4.505-1.835,6.604
	c2.591-0.345,4.016-1.856,6.605-2.201c4.748,0.511,7.909,2.608,12.109,3.669c-1.516-2.675-3.08-4.295-4.403-6.604
	c-16.093-28.081-5.082-66.389,17.613-78.896c3.375-1.86,7.263-3.164,11.009-4.771c3.438-1.474,7.313-4.508,11.375-3.303
	c0.429,2.646-2.777,3.129-4.036,3.67c-5.981,2.565-11.432,4.025-16.88,6.972c-12.726,6.882-22.294,23.327-23.485,41.1
	c-1.226,18.282,4.72,33.435,15.046,43.667c1.577,0.746,4.095,0.553,4.77,2.202c0.156,1.502-0.775,1.916-1.468,2.568
	c-8.792,5.764-21.095,8.015-23.852,19.815c2.535-0.56,8.212-6.072,11.742-3.303c-2.858,3.136-8.807,3.18-11.008,6.973
	c0.222,1.612,1.326,2.343,1.834,3.669c2.813-2.349,8.648-7.051,12.844-4.403c-0.454,2.359-3.713,1.863-5.504,2.568
	c-2.238,0.881-3.613,2-4.771,3.67c8.896,5.99,18.85,0.886,30.09-1.835c6.874-1.664,14.361-2.935,22.018-3.303
	c14.492-0.696,28.38-0.389,35.228-8.807c2.373-2.918,2.082-5.949,0.733-9.174c-0.446-2.489-1.831-4.039-1.835-6.972
	c2.141-1.58,4.793-1.389,6.973-2.202c13.444-5.018,19.139-18.793,20.916-35.595c19.49-16.453,25.382-49.372,25.32-83.298
	c-0.026-14.607-4.935-29.487-9.541-41.466c-4.654-12.104-10.563-23.78-17.247-33.76c-6.373-9.516-14.84-18.736-21.283-29.724
	c-6.304-10.75-12.844-23.491-12.844-38.163c0-13.711,6.904-22.329,15.779-29.723c6.769-4.118,14.6-7.173,17.247-15.412
	c2.84-5.124-0.508-11.403-4.403-13.21c-12.38-8.246-31.282-0.982-37.43,8.073c-11.372,11.105-20.064,23.406-18.715,45.135
	c0.854,13.744,6.645,27.67,12.109,39.998c5.374,12.119,11.745,23.549,18.348,33.76c7.035,10.879,15.187,20.242,20.55,31.558
	c6.766,14.276,13.354,31.191,11.742,52.107c-0.696,9.038-4.07,17.752-10.274,21.283c-2.359-1.928-1.438-3.633-2.201-5.505
	c-2.123-5.201-7.094-10.851-11.009-16.146c-11.666-15.775-25.264-29.931-40.365-41.099c-14.89-11.012-31.558-23.113-48.438-33.026
	c-4.613-2.709-14.269-8.101-15.045-12.11c-0.861-4.438,2.374-9.617,3.669-13.577c1.675-5.125,2.798-9.46,3.303-14.311
	c-2.75-0.552-8.166,1.561-7.706-2.202c1.357-1.579,5.53-0.34,8.073-0.734c0.722-0.991,0.218-3.207,0.366-4.771
	c-3.384-0.841-7.666,2.817-8.807-0.367c0.938-3.1,6.382-1.69,9.174-2.936c0-1.468,0-2.936,0-4.403
	c-3.512-0.072-8.641,3.92-10.642,0.734c1.772-2.998,7.206-2.335,10.642-3.669c1.151-13.074-8.113-22.5-8.439-34.494
	c-0.188-6.896,2.486-14.45,4.036-21.283c1.541-6.793,3.622-13.414,4.403-20.183c-13.57,8.569-25.995,18.283-39.631,26.788
	c-7.97-4.344-18.661-7.035-29.723-6.605c-11.408,0.443-20.946,4.762-28.255,9.174c-13.13-6.809-26.26-13.616-39.631-20.183
	c3.609,10.331,7.332,21.284,9.174,33.393c1.919,12.62-1.122,25.471-1.101,39.631c2.807,1.382,9.463,0.77,9.174,4.036
	c-1.844,2.125-6.316-0.778-9.174-1.101c0.02,1.692-0.163,3.587,0.367,4.771c2.979,0.568,7.481-0.387,7.706,2.936
	c-1.745,2.242-5.581-1.096-7.706,0.367c0.564,1.148,0.584,2.841,0.734,4.404c2.488,0.205,6.259-1.537,6.605,1.468
	c-0.078,2.49-5.198-0.061-5.871,1.834c4.969,11.602,11.025,22.979,20.916,29.724c1.998,1.362,4.793,1.31,6.238,3.669
	c-2.863,10.347-5.35,21.07-5.871,33.76c0,0.734,0,1.468,0,2.202c-0.61,2.208-0.61,6.966,0,9.174
	c2.538,29.631,18.081,46.257,33.76,62.749C191.468,314.984,192.936,316.452,194.557,317.767z M161.531,378.314
	c-1.163,4.487-3.02,10.295-4.771,16.146c-1.74,5.815-2.684,12.345-4.77,16.513c-2.063,4.122-7.64,8.557-2.202,11.743
	c1.5-3.903,3.394-9.302,8.073-8.808c-1.078,4.182-5.516,5.003-5.504,10.275c1.421,1.146,3.129,2.009,5.504,2.201
	c1.13-4.304,3.123-9.526,7.339-9.541c-0.508,4.63-5.004,5.271-4.77,10.642c6.166,1.074,10.328-0.082,13.577-2.936
	c8.749-7.684,12.781-28.139,14.311-41.099c3.29-19.462,2.624-42.879,9.174-59.079c-13.399-10.698-23.715-24.477-33.393-38.897
	C167.797,314.326,169.15,352.846,161.531,378.314z M210.703,383.818c-0.549,1.775-1.934,2.715-1.835,5.138
	c2.307-1.863,5.047-6.756,8.44-5.138c-0.124,3.215-6.024,3.734-6.238,8.073c1.12,1.203,1.939,2.709,3.669,3.303
	c2.085-6.233,3.931-12.705,5.504-19.449c-1.992,0.698-2.848,2.533-4.771,3.303C213.73,380.484,212.14,382.074,210.703,383.818z"/>
<path fill-rule="evenodd" clip-rule="evenodd" fill="#FFFFFF" d="M337.669,77.412c6.147-9.056,25.05-16.319,37.43-8.073
	c3.096,2.674,5.623,7.387,4.403,13.21c-2.647,8.239-10.479,11.294-17.247,15.412c-1.674,0.779-3.907,2.934-5.138,2.936
	c-0.221-5.895-3.023-9.208-5.504-12.843c-1.314-1.622-2.781-3.089-4.403-4.403C344.012,81.588,341.341,79,337.669,77.412z"/>
<path fill-rule="evenodd" clip-rule="evenodd" fill="#FFFFFF" d="M226.482,134.657c6.024-2.334,5.664,6.196,1.835,6.605
	C225.579,141.554,221.966,136.407,226.482,134.657z"/>
<path fill-rule="evenodd" clip-rule="evenodd" fill="#FFFFFF" d="M221.345,387.121c5.356,1.372,9.618,3.836,16.146,4.036
	c0.514,0.607,3.522,0.607,4.037,0c5.09-0.291,8.863-1.899,12.109-4.036c-7.551,20.704-11.223,45.287-37.429,47.337
	c-0.881-5.896,3.181-6.849,5.137-9.908c-3.386-2.709-8.484,4.063-7.706,9.541c-2.637-0.177-4.618-1.008-6.238-2.201
	c-0.999-6.749,4.908-6.591,6.238-11.009c-3.873-1.056-7.686,3.963-8.807,8.072c-1.244-0.468-1.101-2.323-1.835-3.302
	C209.669,413.364,217.29,402.025,221.345,387.121z"/>
<path fill-rule="evenodd" clip-rule="evenodd" fill="#FFFFFF" d="M293.635,392.625c7.179,0.633,10.796,4.41,16.88,6.238
	c16.389,4.921,32.777-1.362,42.934-6.605c0.508,2.55,1.318,4.799,2.568,6.605c1.349,3.225,1.64,6.256-0.733,9.174
	c-6.848,8.418-20.735,8.11-35.228,8.807c-7.656,0.368-15.144,1.639-22.018,3.303c-11.24,2.721-21.193,7.825-30.09,1.835
	c1.157-1.67,2.532-2.789,4.771-3.67c1.791-0.705,5.05-0.209,5.504-2.568c-4.195-2.647-10.031,2.055-12.844,4.403
	c-0.508-1.326-1.612-2.057-1.834-3.669c2.201-3.793,8.149-3.837,11.008-6.973c-3.53-2.77-9.207,2.743-11.742,3.303
	c2.757-11.801,15.06-14.052,23.852-19.815c1.183,0.08,1.553-0.649,2.936-0.367C290.944,392.625,292.289,392.625,293.635,392.625z"/>
<path fill-rule="evenodd" clip-rule="evenodd" fill="#E9CCB1" d="M282.259,147.5c3.428-0.611,9.416-0.611,12.844,0
	C290.822,147.5,286.539,147.5,282.259,147.5z"/>
<path fill-rule="evenodd" clip-rule="evenodd" fill="#CF9768" d="M116.763,163.279c2.574-0.611,7.701-0.611,10.274,0
	C123.613,163.279,120.188,163.279,116.763,163.279z"/>
<path fill-rule="evenodd" clip-rule="evenodd" fill="#E9CCB1" d="M156.394,241.44c0,3.058,0,6.116,0,9.174
	C155.784,248.407,155.784,243.648,156.394,241.44z"/>
</svg>
